<?xml version="1.0" encoding="UTF-8" standalone="no"?>
<svg id="svg2" xmlns:rdf="http://www.w3.org/1999/02/22-rdf-syntax-ns#"
    xmlns="http://www.w3.org/2000/svg" height="1020pt" width="1252pt" version="1.1"
    xmlns:cc="http://creativecommons.org/ns#" xmlns:dc="http://purl.org/dc/elements/1.1/"
    viewBox="0 0 1252 1020">
    <path id="path4"
        d="m683.48 0h19.03c67.18 4.13 135 9.06 200.38 26.07 17.66 4.72 42.54 16 32.29 38.8-9.45 9.95-6.46 25-14.43 35.86-10.95 11.01-24.53 19.04-36.07 29.34-1.37 12.28 1.13 25.1 0.2 37.62 4.93-3.67 4.58-15.06 11.34-18.44-29.03 90.52-33.62 186.49-44.64 280.36-1.52 35.34-9.26 72.03-1.88 106.72 52.54 30.33 106.73 58.39 158.3 90.67 41.4 25.81 84.1 50.64 120.3 83.74 10.4 10.94 23.5 23.92 20.4 40.67-5.4 17.73-25.2 25.01-34.1 40.41-3.2 5.54 3 7.01 6.9 5.8 43.9-9.7 86.2-27.13 130.5-33.93v0.91c-34 15.83-71.6 22.19-106.9 34.77 7.9 3.55 18-1.58 25.3 3.36-76.4 34.2-155.5 62.33-232.52 95.15-74.41 30.27-146.75 65.46-221.67 94.49-2.16 0.22-7.12 3.24-7.9 1.03 27.66-14.68 56.85-26.1 85.55-38.55 99.83-43.86 199.9-87.25 301.14-127.91 14.6-6.22 29.4-11.97 43.5-19.34 2.9-0.67 3.9-7.65-1.9-3.26-25.7 4.35-50.1 13.9-75 21.28-100.06 35.41-201.55 68.49-296.57 116.4-35.1 15.71-71.66 30.04-104.81 48.71-1.22-13.89 14.89-26.54 21.91-38.62-15.22 7.84-32.47 14.36-42.35 29.19-10.47 3.56-22.18 1.07-32.79-1.16-6.04-1.02 1.18-9.79-5.42-11-14.23-7.74-26.36 5.79-39.91 5.54-0.67-6.93 11.8-6.05 15.36-10.83-26.36-1.47-50.03-14.04-74.62-22.25-55.25-16.73-110.9-32.55-167.34-44.63 30.48 21.49 66.64 34.93 100.79 50.17 54.59 23.34 110.26 44.07 166.77 62.26 8.75 3.4 18.3 5.3 26.21 10.6h-4.82c-90.28-27.53-179.43-59.83-264.01-101.98-30.07-16.42-61.67-29.94-94.12-40.91-71.39-29.45-130.34-80.95-188.43-130.56-25.93-23.58-55.32-44.29-77.45-71.47v-2.84c9.87 4.81 17.75 12.66 25.84 19.92 74.48 69.83 161.34 124.48 249.11 175.89 13.63 7.65 27.24 15.9 42.7 19.3 37.42 10.1 74.84 21.2 113.23 26.91-2.17-4.28-7.71-5.17-11.47-7.7-135.48-64.87-263.64-144.16-386.24-230.72-11.38-8.02-23.68-15.09-33.17-25.44v-2.7c5.51 1.83 10.5 4.82 15.12 8.31 70.19 53.85 146.11 99.58 221.94 144.94 66.46 38.49 132.89 77.45 203.04 108.95 32.62 13.03 66.21 26.49 101.14 30.64-135.69-70.05-274.3-134.69-406.64-211.13-36.11-21.29-73.99-42.31-100.56-75.54-6.73-6.59-7.19-18.7 4.05-20.87 97.32-47.41 204.84-69.33 305-109.02-101.38 23.97-202.73 51.57-297.35 95.93-9.68 3.98-2.62-5.3 3.04-6.21 115.63-57.65 244.46-80.03 367.68-115.14 12.83-2.7 4.03-16.78 5.79-25.5 2.02 2.18 7.1 6.92 7.89 1.07 5.91-20.05 13.74-41.35 9.09-62.41-1.8-8.17 8.21-11.27 10.36-18.23 16.08-36.79 27.49-75.38 40.83-113.19 4.36-10.09-4.89-18.24-7.35-27.41-3.88-9.38-0.67-19.46-0.05-29.09 4.25 11.9 1.86 26.92 8.75 38.53 1.06 2.3 4.47 2.18 5.29-0.26 19.77-41.31 33.04-85.59 54.71-125.99-7.28-8.15-20.84-10.73-25.59-21.16 9.66 2.13 16.74 10.1 26.21 12.73 6.15 1.2 1.81-7.01 3.4-10.71 10.47-6.91 14.58-20.14 17.94-31.63-9.26-9.35-33.72-23.41-19.94-38.56 46.3-17.32 97.29-6 145.57-11.37 28.55 0.46 60.41-6.76 87.4 0.84-31.78 3.67-68.44 3.32-101.96 6.4 44.51 6.47 88.58 16.34 133.59 18.81 15.31-0.53 2.13 20.24 11.84 26.43 10.77 11.17 27.44 4.58 35.09-6.59 6.9-9.4 22.98-21.82 13.69-34.14-22.58-7.51-48.77-6.87-70.8-12.11 24.9-9.07 55.84 11.33 80.85 1.5 0.58 16.57 24.16 15.81 31.02 29.42 7.4 9.11 13.22-8.24 12.81-13.61-5.64-14.08-22.34-18.17-35.31-22.91-44.23-12.42-90.17-16.9-135.75-21.25-69.33-4.89-142.37-7.79-208.09 18.58-14.99 4.22-25.33 18.76-40.21 22.02-0.28-6.75 9.5-8.85 13.43-12.85 45.53-31.88 103.41-31.61 156.52-35.92m-57.91 41.55c-23.17 1.44-46.65 2.68-69.17 8.71-4.08 0.87-5.42 4.76-2.57 7.85 8.56 12.44 27.52 26.74 40.21 16.91 20.47-20.51 49.64-27.13 77.29-30.84-14.69-3.65-30.66-2.88-45.76-2.63m263.74 13.51c-7.9 20.71-24.71 36.27-42.44 49.05 1.65 4.19 6.45 2.62 9.67 1.57 18.22-6.34 35.63-15.08 52.22-24.88 20.65-8.82-8.01-25.67-19.45-25.74m-83.29 9.45c-19.71 0.67 6.15 10.4 11.11 15.5 10.01 4.93 3.95-11.94 2.75-15.82-4.62 0.4-9.25 0.03-13.86 0.32m-136.34 5.99c-15.98 3.14-34.63 5.36-46.72 16.53 11.92 9.01 28.91 10.12 43.49 13.52 43.96 6.65 88.39 12.81 132.94 11.06 2.63-1.23 10.67-0.1 9.54-5.26-28.14-26.04-68.06-33.15-105.18-31.71-10.77-4.61-22.37-6.16-34.07-4.14m249.85 11.88c-25.14 12.92-53.02 23.5-77.13 36.66 8.79-1.23 17.14 4.47 16.63 13.82 10.64-3.19 8.91-19.8 18.46-24.6 7.42-2.69 6.6 11.18 13.92 8.21 12.86-5.41 22.09-17.06 29.95-28.18 1.96-2.23 2.68-7.91-1.83-5.91m-338.98 5.6c-6.65 9.16-10.55 19.94-14.29 30.52-2.58 4.17 4.08 10.75 6.47 5.18 5.16-10.99 8.45-23.55 7.82-35.7m25.9 22.23c-7.88 6.14-13.67 25.3 0.32 28.17 45.98 16.4 97.67 11.26 143.21-1.31-48.29-5.98-97.46-11.06-143.53-26.86m265.91 22.82c-14.11 23.88-18.24 52.3-25.88 78.66-1.56 5.38-1.34 18.5 7.78 14.8 4.17-7.58 3.78-16.64 5.26-24.94 1.37-22.93 14.51-47.77 12.84-68.52m-110.77 7.49c-53.12 12.19-110.03 19.76-162.96 2.74-4.23-3.13-7.92 3.15-3.92 4.98 12.77 6.96 27.75 7.99 41.89 10.17 59.2 5.8 121.67 7.57 178.32-12.62-12.76-9.57-37.17-3.96-53.33-5.27m83.74 2.59c-5.14 2.89 0.59 9.35-1.46 13.68-0.48 17.63-4.23 37.82-3.17 54.04 4.35-19.07 8.56-38.27 10.24-57.77 0.05-3.19-0.39-11.28-5.61-9.95m-281.91 0.69c-24.51 33.59-35.18 75.17-46.09 114.73-1.96 12.42 5.56-2.14 6.64-5.65 11.66-36.79 31.12-71.84 39.45-109.08m25.9 10.32c-4.64 13.25-10.38 26.1-14.97 39.35-1.76 7.13 8.61-0.01 11.43 4.76 8.91 12.89 24.91 16.94 39.18 20.83 58.3 13.18 118.78 17.23 178.29 11.81 8.79-6.18 7.04-18.83 8.47-28.19-0.48-15.59 3.13-34.29-0.75-48.39-72.58 16.82-149.27 19.1-221.65-0.17m286.82 20.71c-6.62 19.17-7.88 41.64-8.42 61.12 3.39-19.96 11.67-41.84 8.42-61.12m-353.71 42.61c-8.42 17-15.15 34.98-21.37 52.92-2.53 4.59 3.05 7.66 4.71 3.31 7.69-17.42 13.93-39.57 16.66-56.23m338.77 9.66c-0.91 14.4-5.29 30.47-3.38 43.85 1.08-14.36 5.27-30.6 3.38-43.85m-258.86 12.18c-6.98 6.54-10.79 18.59-10.83 27.51 3.36-8.17 14.27-20.29 10.83-27.51m30.12 6.76c-4.92 3.66-4.29 10.84-4.59 16.19 2.94-0.73 12.73-15.33 4.59-16.19m214.85 5.63c-8.37 16.55-6.73 38.29-3.43 55.69 5.8-17.52 6.16-37.65 3.43-55.69m-175.83 2.34c-4.33 4.96-6.35 11.48-7.64 17.82 5.52-3.33 8.85-11.43 7.64-17.82m-159.11 15.24c-1.96 4.14-3.69 9.23-1.45 13.62 4.55-1.03 7.65-13.16 1.45-13.62m-15.05 12.81c-16 36.23-26.3 75.22-39.8 112.6-1.57 0.98-2.49 10.69 0.33 5.2 15.9-35.36 27.92-72.43 39.78-109.31-0.14-2.43 3.79-8.8-0.31-8.49m11.06 6.18c-4.03 1.54-4.15 6.91-6 10.16-12.31 34.09-27.11 67.53-35.09 102.97-1.61 3 2.09 3.35 2.76 0.64 14.6-35.37 25.42-72.17 39.22-107.84 0.42-1.65 1.3-6.26-0.89-5.93m27.97 6.84c2.67 8.39 17.9 14.25 25.4 14.4-8.83-4.14-17.24-10.68-25.4-14.4m-1.94 10.14c-17.61 31.84-26.78 68.38-39.92 102.45-5.26 7.13 3.63 11.34 8.49 14.42 69.49 39.31 148.05 70.05 229.33 63.34 22.41-3.72 45.03-6.75 67.12-12.09-1.2-45.48 4.76-92.31 2.4-138.16-39.62 10.22-80.94 16.28-121.94 9.9-49.47-7.87-101.74-15.04-145.48-39.86m311.04 9.52c-6.14 8.28-4.45 20.96-2.6 30.35 1.05-10.03 3.85-20.48 2.6-30.35m-67.82 10.8c-48.37 8.16-97.61 11.38-146.45 5.42 51.88 14.14 112.21 16.44 164.77-2.22-0.64-7.08-13.48-2.52-18.32-3.2m56.66 2.73c-6.91 43.52-11.66 88.16-9.79 132.14 0.17 9 12.55 4.21 12.11-2.8 2.05-42.06 3.71-89.5-2.32-129.34m16.01-0.28c-1.25 4.33-1.88 8.88-0.75 13.34 0.21-3.83 3.28-10.25 0.75-13.34m-401.97 97.89c-3.53 5.8-3.64 13.91-2.7 20.08 1.56-6.35 6.31-15.24 2.7-20.08m7.96 4.87c-6.21 14.16-13.33 29.66-11.74 45.29 5.46-14.31 14.76-31.22 11.74-45.29m50.07 24.62c-2.27 6.58 8.95 7.08 13.38 7.5 1-6.16-8.93-8.1-13.38-7.5m-17.04 4.71c-6.33 4.09-8.63 13.81-4.39 20.11 5.76-3.4 11.74-17.15 4.39-20.11m344.2 30.34c-16.94 3.38-11.75 28.78-3.75 38.94 12.09 7.34 10-12.55 10.86-18.8-0.71-5.7 3.79-22.35-7.11-20.14m-241.13 1.67c-4.66 13.36-7.59 28.62-14.56 41.69 12.15-9.9 22.48-22.47 32.23-34.8-5.15-3.26-11.57-6.14-17.67-6.89m202.75 7.07c-8.91 3.06-22.15 1.36-27.15 9.83 6.89 13.27 22.73 23.34 21.13 39.81 15.85-6.53 11.67-37.17 6.02-49.64m-381.58 10.39c-4.52 1.1-8.99 2.45-13.54 3.42 4.62 4.18 10.26 8.26 16.58 8.99 3.56-3.02 2.81-14.54-3.04-12.41m-23.19 5.72c-35.59 12.46-71.94 22.72-107.2 36.07 39.29-2.81 81.24-23.28 122.15-20.78 5.98 1.54 2.75 15.03 10.18 11.84 4.15-14.89-14.47-23.27-25.13-27.13m66.94 2.84c-10.73 12.79 3.44 27.47 15.7 31.89 42.79 18.27 89.28 24.78 135.26 29.07-52.97-11.64-106.64-29.06-150.96-60.96m281.79 27.98c-5.57 8.74-16.37 13.02-23.8 18 19.61-3.38 43.3 2.51 59.72-10.06-12.95 5.09-26.89 2.65-35.92-7.94m-291.37 1.11c-9.83 14.61-11.86 33.85-21.66 48.88-5.12 11.95-11.74 24.12-12.59 37.11 19.5 13.48 42.96 20.19 65.55 26.79 89.49 20.41 184.56 29.28 274.01 4.06 17.04-5.01 35.97-8.62 49.17-21.43 1.76-20.77 0.84-42.99-5.77-62.97-30.36 10.51-67.22 7.29-99.83 8.98-71.06 1.89-146.65 7.16-212.64-24.59-12.38-4.76-21.73-18.78-36.24-16.83m349.69 3.12c-3.35 1.61-7.78 3.06-9.45 6.59 5.92 6.48 16.18 0.01 9.45-6.59m-397.06 0.97c-60.26 14.7-121.5 29.63-177.47 56.96 47.19-11.46 96.14-28 146.2-29.12 11.39-3.71 35.44 6.17 34.45-12.83-1.27-3.99 4.66-17-3.18-15.01m292.06 3.01c-3.89 1.19-10.44 3.74-9.16 8.59 6.18 0.08 12.32-1.07 18.42-2.02 0.81-3.57-5.46-7.68-9.26-6.57m139.13 14.03c-13.01 12.23-4.29 37.57-3.02 54.11 13.3-1.92 10.72-23.73 11.55-33.34-1.7-6.02 2.37-22.65-8.53-20.77m18.15 4.99c-4.6 3.85 7.33 9.81 10.29 12.76 56.98 36.26 117.22 67.38 173.91 104.01-25.7-22.8-55.39-40.99-81.22-63.78-16.47-11.7-32.84-24.87-52.62-30.27-16.48-7.58-31.17-23.71-50.36-22.72m-291.63 6.5c3.42 2.97 12.95 2.16 16.93 1.33-5.61-0.79-11.29-1.09-16.93-1.33m-209.44 4.7c-24.4 3.93-51.43 8.09-73.39 16.5 28.04-2.11 57.55-1.79 84.21-11.73 3.53-6.83-6.89-6.05-10.82-4.77m35.91-0.09c-10.95 3.76 10.11 4.67 13.6 1.73-4.38-1.39-8.96-2.8-13.6-1.73m466.46 5.49c-3.14 48.92-0.34 98.52-6.88 147.26-12.23-34.05 2.58-76.6-7.03-111.23-12.42 9.53-5.66 29.61-6.3 43.37-0.66 11.1 5.86 34.59-12.52 33.84-4.41 9.13 4.41 19.31 0.67 28.75-4.91 0.47-4.69-7.41-5.47-10.49 0-19.43-10.08-37.06-7.76-56.68-1.18-6.69-10.24-2.61-14.51-1.63-19.18 8.12-39.55 13.14-58.61 21.3 17.19 0.98 34.76-5.93 52.04-1.25 11.16 7.01 2.68 21.71-8.58 21.85-13.64 1.17-14.78 17.79-7.03 26.2 9.21-6.41 15.2-20.48 27.43-20.97 13.81 6.09 3.2 23.72-1.35 32.62 6.82 6.58 7.98 18.68-0.87 24.47-23.95 15.93-52.64 23.2-80.38 29.56-15.38-1.79-19.43 16.48-35.16 14.8-98.74 6.5-208.7 2.53-291.79-58.42-3.92 1.74-4.27 8.92-8.68 10.98 4.27-11.36-1.36-24-11.36-30.28-9.57 0.82-6.98 18.43-15.23 17.59-0.17-10.67 10.01-20.96 5.12-32.17-6.13-12.53-15.58-24.94-14.69-39.61 0.93-10.33 15.16-12.1 20.31-4.12 4.77 3 4.36 12.97 9.32 13.91 2.67-16.22 14.97-35.99 2.86-51.15-8.29-11.15-11.5-24.82-14.21-37.97-42.48 1.03-85.4 7.18-127.48 14.4-48.53 13.98-97.14 28.48-144.09 47.15 10.51 9.45 28.98 7.7 40.02 14.13-7.49 0.75-15.98-1.99-22.78-0.44 63.42 43.28 134.11 74.18 204.03 105.27 81 34.74 161.75 70.33 239.96 111.03 26.16 13.48 50.9 30 78.44 40.65 14.83 7.08 14.69-16.33 27.58-17.64 28.13-11.2 58.03-17.59 85.62-30.37 83.07-38.65 167.19-75.2 253.24-106.74 32.82-12.11 65.42-24.84 97.82-38.01-13.4-14.82-32.5-24.83-48.8-36.81-62.78-40.17-127.23-78-192.9-113.15m-613.47 2.44c-51.43 14.88-102.21 32.17-152.44 50.73-5.55 3.14-15.14 4.26-18.01 9.58 16.16 8.8 31.03-8.37 45.86-12.73 42.23-14.82 86.89-24.27 125.99-46.88 1.99-1.62-0.12-1.04-1.4-0.7m156.85 0c-15.93-2.54-8.67 15.81-3.34 21.7 6.7-2.93 7.87-19.76 3.34-21.7m584.27 46.89c38.25 34.35 85.05 58.15 122.15 94.01 1.8 2.6 8.1 7.94 2.9 10.41-34 17.08-70.3 28.62-104.95 44.01-5.22 0.61-11.75 9.99-4.49 12.33 27.54-3.65 53.04-16.05 78.84-25.91 18-8.79 40.3-13.41 52.8-30.08-13.6-18.18-34.1-29.49-51.9-43.03-31.8-20.44-61.8-44.24-95.35-61.74m-548.66 13.63c11.35 10.64 27.79 14.99 42.62 18.41-10.53-11-28.7-12.61-42.62-18.41m-19.9 19.34c-6.08 4.36 2.52 12.19 6.7 15.04 4.82 3.45 0.61 12.43 5.92 13.97 8.43-10.88 0.3-26.84-12.62-29.01m307.19 5.22c-47.49 10.77-99.35 4.44-146.22 6.45 50.32 5.28 101.7 8.35 151.3-3.62 2.59-2.93-2.81-2.96-5.08-2.83m-238.81 24.72c-5.57 6.98-5.13 17.57-7.48 25.99 3.72-3.28 27.03-26.44 7.48-25.99m72.28 12.1c-6.19-0.18-8.1 16.75-0.72 9.77 7.11-7.74 23.23-3.84 21.84 7.95 6.36-2.76 10.4-10.06 13.37-15.88-11.14-3.71-23.02-1.95-34.49-1.84m99.73 4.19c-15.6-1.2-3.65 16.87-4.9 25.67 6.46-8.05 13.68-15.61 19.39-24.21-4.7-1.31-9.65-1.61-14.49-1.46m85.08-0.3c-3.62 2.19-5.33 6.59-5.41 10.67 5.8 2.13 12.65-11.53 5.41-10.67m-42.77 1.91c-6.56 3.04-3.56 11.51-3.02 17.04 6.82-2.86 18.2-20.18 3.02-17.04m51.64 35.13c-3.23 2.04-5.85 5.48-7.11 9.07 3.58 3.48 16.93-7.87 7.11-9.07m-607.73 35.03c38.46 32.05 81.98 59.4 127.28 80.84-13.12-14.31-32.2-21.15-47.92-32.13-26.94-15.42-51.88-34.37-79.36-48.71m838.92 55.25c-25.45 4.67-49.73 13.89-74.24 21.9-63.94 23.01-128.1 45.81-189.97 74.04-15.57 7.04-30.93 17.47-39.08 32.73 32.99-6.41 61.66-25.93 91.78-40.02 71.25-31.9 144.76-58.33 216.75-88.45l-5.24-0.2m-449.71 98.49c14.94 9.02 33.43 13.52 51.03 15.07-14.88-8.25-34.11-10.44-51.03-15.07z" />
    <path id="path6"
        d="m907.6 885.23c1.77-0.92 6.3 2.33 1.6 2.69-45.9 19.97-92.62 38.2-137.21 61.08-18.12 8.56-35.46 19.05-54.47 25.59-5.1 2.03-0.31-6.33 2.45-5.65 37.94-21.84 78.35-39.03 118.43-56.54 23.26-8.55 45.1-21.07 69.2-27.17z" />
</svg>